<?xml version="1.0" encoding="UTF-8" standalone="no"?><svg xmlns="http://www.w3.org/2000/svg" xmlns:xlink="http://www.w3.org/1999/xlink" contentScriptType="text/ecmascript" fill="#000000" width="445.6" zoomAndPan="magnify" contentStyleType="text/css" viewBox="0.0 19.2 445.6 461.5" height="461.5" preserveAspectRatio="xMidYMid meet" version="1"><g><g id="change1_95"><path fill="#00fffc" d="M394.6,397.8c-41.7,41.7-97,64.6-155.9,64.6v2.2c59.5,0,115.4-23.1,157.4-65.2L394.6,397.8L394.6,397.8z"/></g><g id="change1_100"><path fill="#00fffc" d="M82.9,397.8L82.9,397.8l-1.6,1.6l0,0c42,42,98,65.2,157.4,65.2v-2.2C179.9,462.4,124.6,439.5,82.9,397.8z"/></g><g id="change1_16"><path fill="#00fffc" d="M18.4,241.9L18.4,241.9h-2.2l0,0c0,59.5,23.1,115.4,65.2,157.4l1.6-1.6C41.3,356.2,18.4,300.8,18.4,241.9z"/></g><g id="change1_72"><path fill="#00fffc" d="M394.6,86.1L394.6,86.1l1.6-1.6l0,0c-42-42.1-98-65.3-157.4-65.3v2.2C297.6,21.5,353,44.5,394.6,86.1z"/></g><g id="change1_75"><path fill="#00fffc" d="M82.9,86.1c41.7-41.7,97-64.6,155.9-64.6v-2.2c-59.5,0-115.4,23.1-157.4,65.2L82.9,86.1L82.9,86.1z"/></g><g id="change1_108"><path fill="#00fffc" d="M82.9,86.1l-1.6-1.6l0,0c-42,42-65.2,97.9-65.2,157.3h2.2C18.4,183,41.3,127.7,82.9,86.1z"/></g><g id="change1_21"><path fill="#00fffc" d="M238.8,446.5v2.2c55.2,0,107.1-21.5,146.2-60.6l-1.6-1.6C344.8,425.2,293.4,446.5,238.8,446.5z"/></g><g id="change1_1"><path fill="#00fffc" d="M383.4,97.3c38.6,38.6,59.9,90,59.9,144.7l0,0h2.2l0,0c0-55.2-21.5-107.1-60.6-146.2L383.4,97.3 L383.4,97.3z"/></g><g id="change1_69"><path fill="#00fffc" d="M238.8,35.2v2.2c54.6,0,106,21.3,144.7,59.9l1.6-1.6l0,0C345.9,56.7,294,35.2,238.8,35.2z"/></g><g id="change1_103"><path fill="#00fffc" d="M383.4,386.6L383.4,386.6l1.6,1.6l0,0c39.1-39.1,60.6-91,60.6-146.2h-2.2 C443.3,296.6,422.1,348,383.4,386.6z"/></g><g id="change1_31"><path fill="#00fffc" d="M54.6,280.2c-0.1-0.6-0.7-1-1.3-0.9c-0.6,0.1-1,0.7-0.9,1.3c0.2,1.1,0.4,2.2,0.7,3.3 c0.1,0.5,0.6,0.9,1.1,0.9c0.1,0,0.1,0,0.2,0c0.6-0.1,1-0.7,0.8-1.3C55.1,282.3,54.9,281.2,54.6,280.2z"/></g><g id="change1_73"><path fill="#00fffc" d="M58.7,296.3c-0.1-0.6-0.8-0.9-1.4-0.7c-0.6,0.1-0.9,0.8-0.7,1.4c0.3,1.1,0.7,2.2,1,3.2 c0.1,0.4,0.6,0.7,1,0.7c0.1,0,0.2,0,0.4-0.1c0.6-0.2,0.9-0.8,0.7-1.4C59.4,298.4,59.1,297.3,58.7,296.3z"/></g><g id="change1_119"><path fill="#00fffc" d="M52.1,263.7c-0.1-0.6-0.7-1-1.3-1c-0.6,0.1-1,0.6-1,1.3c0.1,1.1,0.3,2.2,0.4,3.3c0.1,0.6,0.5,1,1.1,1 c0.1,0,0.1,0,0.1,0c0.6-0.1,1-0.7,1-1.3C52.3,265.9,52.1,264.8,52.1,263.7z"/></g><g id="change1_62"><path fill="#00fffc" d="M111,379.8c-0.4-0.4-1.2-0.4-1.6,0.1s-0.4,1.2,0.1,1.6c0.8,0.7,1.6,1.5,2.5,2.3c0.2,0.2,0.4,0.3,0.7,0.3 s0.6-0.1,0.8-0.4c0.4-0.4,0.4-1.2-0.1-1.6C112.6,381.3,111.8,380.6,111,379.8z"/></g><g id="change1_117"><path fill="#00fffc" d="M64.2,312c-0.2-0.6-0.9-0.8-1.5-0.6c-0.6,0.2-0.8,0.9-0.6,1.5c0.4,1,0.8,2.1,1.3,3.1 c0.1,0.4,0.6,0.7,1,0.7c0.1,0,0.3,0,0.4-0.1c0.6-0.2,0.8-0.9,0.6-1.5C65.1,314,64.7,313,64.2,312z"/></g><g id="change1_40"><path fill="#00fffc" d="M126.4,392.6c-0.9-0.7-1.8-1.3-2.7-2c-0.5-0.4-1.2-0.3-1.6,0.2s-0.3,1.2,0.2,1.6c0.9,0.7,1.8,1.3,2.7,2.1 c0.2,0.1,0.4,0.2,0.7,0.2c0.4,0,0.7-0.1,0.9-0.4C126.9,393.7,126.8,393,126.4,392.6z"/></g><g id="change1_37"><path fill="#00fffc" d="M49.9,251.6c0.6,0,1.1-0.5,1-1.2c-0.1-1.1-0.1-2.2-0.1-3.3c0-0.6-0.5-1.1-1.1-1.1l0,0 c-0.6,0-1.1,0.5-1.1,1.1c0,1.1,0.1,2.2,0.1,3.3C48.8,251.2,49.2,251.6,49.9,251.6L49.9,251.6z"/></g><g id="change1_89"><path fill="#00fffc" d="M99.3,368c-0.4-0.4-1.1-0.5-1.6-0.1c-0.4,0.4-0.5,1.1-0.1,1.6c0.7,0.8,1.5,1.6,2.3,2.4 c0.2,0.2,0.5,0.4,0.8,0.4c0.3,0,0.5-0.1,0.7-0.3c0.4-0.4,0.4-1.1,0.1-1.6C100.8,369.7,100,368.9,99.3,368z"/></g><g id="change1_19"><path fill="#00fffc" d="M140.1,401.9c-1-0.6-1.9-1.2-2.8-1.8c-0.5-0.3-1.2-0.1-1.6,0.4c-0.3,0.5-0.1,1.2,0.4,1.6 c1,0.6,1.9,1.2,2.8,1.8c0.1,0.1,0.4,0.1,0.6,0.1c0.4,0,0.7-0.2,1-0.5C140.7,403,140.6,402.3,140.1,401.9z"/></g><g id="change1_35"><path fill="#00fffc" d="M79.3,341.5c-0.3-0.5-1-0.7-1.6-0.4c-0.5,0.3-0.7,1-0.4,1.6c0.6,1,1.2,1.9,1.8,2.8c0.2,0.3,0.6,0.5,1,0.5 c0.2,0,0.4-0.1,0.6-0.1c0.5-0.4,0.7-1,0.3-1.6C80.5,343.4,79.9,342.5,79.3,341.5z"/></g><g id="change1_114"><path fill="#00fffc" d="M71.1,327c-0.3-0.5-1-0.7-1.5-0.5c-0.5,0.3-0.7,1-0.5,1.5c0.5,1,1,2,1.6,3c0.2,0.4,0.6,0.6,1,0.6 c0.1,0,0.4-0.1,0.5-0.1c0.5-0.3,0.7-1,0.4-1.5C72.1,329,71.6,328.1,71.1,327z"/></g><g id="change1_110"><path fill="#00fffc" d="M88.7,355.2c-0.4-0.5-1-0.6-1.6-0.2c-0.5,0.4-0.6,1-0.2,1.6c0.7,0.9,1.3,1.8,2.1,2.7 c0.2,0.3,0.5,0.4,0.9,0.4c0.2,0,0.5-0.1,0.7-0.2c0.5-0.4,0.6-1.1,0.2-1.6C90,357,89.4,356.1,88.7,355.2z"/></g><g id="change1_105"><path fill="#00fffc" d="M50.1,229.4c-0.6-0.1-1.1,0.4-1.2,1c-0.1,1.1-0.1,2.2-0.1,3.3c0,0.6,0.4,1.1,1,1.2c0,0,0,0,0.1,0 c0.6,0,1.1-0.4,1.1-1c0.1-1.1,0.1-2.2,0.1-3.3C51.2,229.9,50.7,229.4,50.1,229.4z"/></g><g id="change1_97"><path fill="#00fffc" d="M89,126.5c0.2,0.1,0.4,0.2,0.7,0.2c0.3,0,0.7-0.1,0.9-0.4c0.7-0.9,1.4-1.8,2.1-2.6 c0.4-0.4,0.3-1.2-0.1-1.6c-0.4-0.4-1.2-0.3-1.6,0.1c-0.7,0.9-1.4,1.8-2.1,2.7C88.4,125.4,88.5,126.2,89,126.5z"/></g><g id="change1_67"><path fill="#00fffc" d="M426.7,245.3c0,0.6,0.4,1.1,1.1,1.1l0,0c0.6,0,1.1-0.5,1.1-1.1c0-1.1,0-2.2,0-3.3l0,0h-2.2l0,0 C426.7,243.1,426.7,244.2,426.7,245.3z"/></g><g id="change1_48"><path fill="#00fffc" d="M100.5,114c0.3,0,0.6-0.1,0.8-0.4c0.7-0.8,1.6-1.6,2.3-2.4c0.4-0.4,0.4-1.1,0-1.6c-0.4-0.4-1.1-0.4-1.6,0 c-0.8,0.8-1.6,1.6-2.3,2.4c-0.4,0.4-0.4,1.2,0.1,1.6C100,113.9,100.3,114,100.5,114z"/></g><g id="change1_42"><path fill="#00fffc" d="M428.9,241.5c0-0.6-0.5-1.1-1.1-1.1l0,0c-0.6,0-1.1,0.5-1.1,1.1v0.4h2.2V241.5z"/></g><g id="change1_96"><path fill="#00fffc" d="M59.9,180.3c-0.6-0.2-1.2,0.1-1.4,0.7c-0.4,1-0.7,2.2-1,3.2c-0.2,0.6,0.1,1.2,0.7,1.4 c0.1,0,0.2,0.1,0.4,0.1c0.4,0,0.9-0.3,1-0.7c0.4-1,0.7-2.2,1-3.2C60.8,181.1,60.5,180.5,59.9,180.3z"/></g><g id="change1_109"><path fill="#00fffc" d="M51.9,212.8c-0.6-0.1-1.2,0.3-1.3,1c-0.1,1.1-0.3,2.2-0.4,3.3c-0.1,0.6,0.4,1.2,1,1.3c0.1,0,0.1,0,0.1,0 c0.5,0,1-0.4,1.1-1c0.1-1.1,0.3-2.2,0.4-3.3C52.9,213.4,52.5,212.9,51.9,212.8z"/></g><g id="change1_49"><path fill="#00fffc" d="M55.2,196.4c-0.6-0.1-1.2,0.2-1.3,0.8c-0.3,1.1-0.5,2.2-0.7,3.3c-0.1,0.6,0.2,1.2,0.8,1.3 c0.1,0,0.1,0,0.2,0c0.5,0,1-0.4,1.1-0.9c0.2-1.1,0.5-2.2,0.7-3.3C56.1,197.1,55.8,196.5,55.2,196.4z"/></g><g id="change1_90"><path fill="#00fffc" d="M79.3,140.2c0.2,0.1,0.4,0.1,0.6,0.1c0.4,0,0.7-0.1,1-0.5c0.6-1,1.2-1.9,1.9-2.7c0.4-0.5,0.2-1.2-0.3-1.6 c-0.5-0.4-1.2-0.2-1.6,0.3c-0.6,1-1.3,1.9-1.9,2.8C78.7,139.1,78.8,139.9,79.3,140.2z"/></g><g id="change1_25"><path fill="#00fffc" d="M154.6,410.1c-1-0.5-2-1-3-1.6c-0.5-0.3-1.2-0.1-1.5,0.4c-0.3,0.5-0.1,1.2,0.4,1.5c1,0.5,2,1,3,1.6 c0.1,0.1,0.3,0.1,0.5,0.1c0.4,0,0.8-0.2,1-0.6C155.3,411.1,155.1,410.4,154.6,410.1z"/></g><g id="change1_11"><path fill="#00fffc" d="M71,154.7c0.1,0.1,0.4,0.1,0.5,0.1c0.4,0,0.8-0.2,1-0.6c0.5-1,1-1.9,1.6-3c0.3-0.5,0.1-1.2-0.4-1.5 c-0.5-0.3-1.2-0.1-1.5,0.4c-0.5,1-1.1,2-1.6,3C70.2,153.8,70.4,154.4,71,154.7z"/></g><g id="change1_50"><path fill="#00fffc" d="M63.9,169.8c0.1,0.1,0.3,0.1,0.4,0.1c0.4,0,0.8-0.2,1-0.7c0.4-1,0.9-2.1,1.3-3c0.2-0.6,0-1.2-0.6-1.5 c-0.6-0.2-1.2,0-1.5,0.6c-0.4,1-0.9,2.1-1.3,3.1C63,169,63.3,169.6,63.9,169.8z"/></g><g id="change1_118"><path fill="#00fffc" d="M234.2,54.1L234.2,54.1c1.1,0,2.2-0.1,3.3-0.1c0.6,0,1.1-0.5,1.1-1.1s-0.5-1.1-1.1-1.1l0,0 c-1.1,0-2.2,0-3.3,0.1c-0.6,0-1.1,0.5-1.1,1.1S233.6,54.1,234.2,54.1z"/></g><g id="change1_78"><path fill="#00fffc" d="M344.2,86.3c0.9,0.6,1.9,1.3,2.7,1.9c0.2,0.1,0.4,0.2,0.7,0.2c0.4,0,0.7-0.1,0.9-0.4 c0.4-0.5,0.2-1.2-0.3-1.6c-0.9-0.7-1.9-1.3-2.7-1.9c-0.5-0.4-1.2-0.2-1.6,0.3C343.5,85.3,343.7,86.1,344.2,86.3z"/></g><g id="change1_98"><path fill="#00fffc" d="M360.1,98.4c0.2,0.1,0.4,0.3,0.7,0.3s0.6-0.1,0.8-0.4c0.4-0.4,0.4-1.2-0.1-1.6c-0.9-0.7-1.7-1.4-2.6-2.2 c-0.4-0.4-1.2-0.3-1.6,0.1c-0.4,0.4-0.3,1.2,0.1,1.6C358.4,97,359.3,97.7,360.1,98.4z"/></g><g id="change1_13"><path fill="#00fffc" d="M383.5,122c0.2,0.3,0.5,0.4,0.9,0.4c0.2,0,0.5-0.1,0.7-0.2c0.4-0.4,0.5-1.1,0.1-1.6 c-0.7-0.9-1.4-1.7-2.2-2.6c-0.4-0.4-1.1-0.5-1.6-0.1c-0.4,0.4-0.5,1.1-0.1,1.6C382,120.4,382.8,121.2,383.5,122z"/></g><g id="change1_120"><path fill="#00fffc" d="M169.8,416.8c-1-0.4-2.1-0.8-3.1-1.3c-0.6-0.2-1.2,0-1.5,0.6c-0.2,0.6,0,1.2,0.6,1.5 c1,0.4,2.1,0.9,3.1,1.3c0.1,0.1,0.3,0.1,0.4,0.1c0.4,0,0.9-0.3,1-0.7C170.6,417.7,170.4,417.1,169.8,416.8z"/></g><g id="change1_9"><path fill="#00fffc" d="M330,77.7c1,0.5,1.9,1.1,2.9,1.6c0.1,0.1,0.4,0.1,0.6,0.1c0.4,0,0.7-0.2,1-0.5c0.3-0.5,0.1-1.2-0.4-1.6 c-1-0.6-1.9-1.1-3-1.6c-0.5-0.3-1.2-0.1-1.5,0.4C329.3,76.6,329.5,77.4,330,77.7z"/></g><g id="change1_79"><path fill="#00fffc" d="M420.9,195.5c0.1,0.5,0.6,0.8,1.1,0.8c0.1,0,0.1,0,0.3,0c0.6-0.1,1-0.7,0.8-1.3c-0.3-1.1-0.6-2.2-0.9-3.3 c-0.1-0.6-0.7-1-1.3-0.8s-1,0.7-0.8,1.3C420.4,193.3,420.6,194.4,420.9,195.5z"/></g><g id="change1_47"><path fill="#00fffc" d="M393.5,135.3c0.2,0.3,0.6,0.4,0.9,0.4c0.2,0,0.4-0.1,0.7-0.2c0.5-0.4,0.7-1,0.3-1.6 c-0.7-0.9-1.3-1.9-1.9-2.7c-0.4-0.5-1-0.6-1.6-0.2c-0.5,0.4-0.6,1-0.2,1.6C392.3,133.5,392.9,134.4,393.5,135.3z"/></g><g id="change1_28"><path fill="#00fffc" d="M424.3,211.7c0.1,0.5,0.6,1,1.1,1c0.1,0,0.1,0,0.1,0c0.6-0.1,1-0.7,0.9-1.3c-0.1-1.1-0.4-2.2-0.6-3.3 c-0.1-0.6-0.7-1-1.3-0.9c-0.6,0.1-1,0.7-0.9,1.3C423.9,209.6,424.1,210.6,424.3,211.7z"/></g><g id="change1_71"><path fill="#00fffc" d="M299.6,64.1c1,0.4,2.1,0.7,3.1,1.1c0.1,0.1,0.2,0.1,0.4,0.1c0.4,0,0.9-0.3,1-0.7c0.2-0.6-0.1-1.2-0.7-1.4 c-1-0.4-2.2-0.7-3.2-1.1c-0.6-0.2-1.2,0.1-1.4,0.7C298.8,63.3,299.1,63.9,299.6,64.1z"/></g><g id="change1_65"><path fill="#00fffc" d="M409.9,164.1c0.2,0.4,0.6,0.7,1,0.7c0.1,0,0.3,0,0.4-0.1c0.6-0.2,0.8-0.9,0.5-1.5c-0.4-1-1-2-1.4-3 c-0.3-0.5-1-0.8-1.5-0.5c-0.5,0.3-0.8,1-0.5,1.5C408.9,162.1,409.4,163.2,409.9,164.1z"/></g><g id="change1_44"><path fill="#00fffc" d="M402.3,149.4c0.2,0.4,0.6,0.6,1,0.6c0.2,0,0.4-0.1,0.5-0.1c0.5-0.3,0.7-1,0.4-1.5c-0.5-1-1.1-1.9-1.7-2.9 c-0.3-0.5-1-0.7-1.6-0.4c-0.5,0.3-0.7,1-0.4,1.6C401.2,147.4,401.7,148.4,402.3,149.4z"/></g><g id="change1_102"><path fill="#00fffc" d="M416.1,179.6c0.1,0.4,0.6,0.7,1,0.7c0.1,0,0.2,0,0.4-0.1c0.6-0.2,0.9-0.8,0.7-1.4c-0.4-1-0.7-2.2-1.1-3.2 c-0.2-0.6-0.9-0.9-1.4-0.7c-0.6,0.2-0.9,0.9-0.7,1.4C415.3,177.5,415.7,178.5,416.1,179.6z"/></g><g id="change1_32"><path fill="#00fffc" d="M139.2,82.3c0.2,0,0.4-0.1,0.6-0.1c1-0.6,1.9-1.2,2.8-1.7c0.5-0.3,0.7-1,0.4-1.6c-0.3-0.5-1-0.7-1.6-0.4 c-1,0.6-1.9,1.2-2.9,1.8c-0.5,0.3-0.7,1-0.4,1.6C138.4,82.1,138.8,82.3,139.2,82.3z"/></g><g id="change1_27"><path fill="#00fffc" d="M169,67.3c0.1,0,0.3,0,0.4-0.1c1-0.4,2.1-0.8,3.1-1.2c0.6-0.2,0.9-0.9,0.7-1.4c-0.2-0.6-0.9-0.9-1.4-0.7 c-1,0.4-2.1,0.8-3.1,1.2c-0.6,0.2-0.8,0.9-0.6,1.4C168.2,67,168.5,67.3,169,67.3z"/></g><g id="change1_38"><path fill="#00fffc" d="M153.8,74.1c0.1,0,0.4-0.1,0.5-0.1c1-0.5,2-1,3-1.5c0.5-0.3,0.8-1,0.5-1.5c-0.3-0.5-1-0.8-1.5-0.5 c-1,0.5-2,1-3,1.5c-0.5,0.3-0.7,1-0.5,1.5C153,73.9,153.3,74.1,153.8,74.1z"/></g><g id="change1_70"><path fill="#00fffc" d="M111.7,102c0.2,0.2,0.5,0.4,0.8,0.4c0.3,0,0.5-0.1,0.7-0.3c0.8-0.7,1.6-1.5,2.5-2.2 c0.4-0.4,0.5-1.1,0.1-1.6c-0.4-0.4-1.1-0.5-1.6-0.1c-0.8,0.7-1.7,1.5-2.5,2.2C111.3,100.8,111.2,101.5,111.7,102z"/></g><g id="change1_46"><path fill="#00fffc" d="M125.4,91.7c0.2,0,0.4-0.1,0.7-0.2c0.9-0.7,1.8-1.3,2.7-2c0.5-0.4,0.6-1,0.2-1.6c-0.4-0.5-1-0.6-1.6-0.2 c-0.9,0.7-1.8,1.3-2.7,2c-0.5,0.4-0.6,1-0.2,1.6C124.7,91.5,125.1,91.7,125.4,91.7z"/></g><g id="change1_23"><path fill="#00fffc" d="M267.4,56.2c1.1,0.1,2.2,0.4,3.3,0.5c0.1,0,0.1,0,0.2,0c0.5,0,1-0.4,1.1-0.9c0.1-0.6-0.3-1.2-0.9-1.3 c-1.1-0.2-2.2-0.4-3.3-0.5c-0.6-0.1-1.2,0.3-1.3,1C266.4,55.5,266.8,56.1,267.4,56.2z"/></g><g id="change1_82"><path fill="#00fffc" d="M283.7,59.4c1.1,0.3,2.2,0.5,3.2,0.8c0.1,0,0.2,0,0.3,0c0.5,0,1-0.3,1-0.8c0.1-0.6-0.2-1.2-0.8-1.3 c-1.1-0.3-2.2-0.6-3.3-0.8c-0.6-0.1-1.2,0.2-1.3,0.8C282.7,58.7,283.1,59.3,283.7,59.4z"/></g><g id="change1_6"><path fill="#00fffc" d="M250.9,54.4c1.1,0.1,2.2,0.1,3.3,0.2h0.1c0.6,0,1-0.4,1.1-1s-0.4-1.1-1-1.2c-1.1-0.1-2.2-0.1-3.3-0.2 c-0.6,0-1.1,0.4-1.2,1C249.8,53.8,250.3,54.4,250.9,54.4z"/></g><g id="change1_5"><path fill="#00fffc" d="M201,57.8c0.1,0,0.1,0,0.2,0c1.1-0.2,2.2-0.4,3.3-0.7c0.6-0.1,1-0.7,0.9-1.3c-0.1-0.6-0.7-1-1.3-0.9 c-1.1,0.2-2.2,0.4-3.3,0.7c-0.6,0.1-1,0.7-0.9,1.3C200.1,57.4,200.5,57.8,201,57.8z"/></g><g id="change1_87"><path fill="#00fffc" d="M217.6,55.2c0.1,0,0.1,0,0.1,0c1.1-0.1,2.2-0.2,3.3-0.4c0.6-0.1,1-0.6,1-1.2c-0.1-0.6-0.6-1-1.2-1 c-1.1,0.1-2.2,0.2-3.3,0.4c-0.6,0.1-1,0.6-1,1.3C216.5,54.8,217,55.2,217.6,55.2z"/></g><g id="change1_8"><path fill="#00fffc" d="M184.8,61.8c0.1,0,0.2,0,0.3-0.1c1-0.3,2.2-0.6,3.2-0.9c0.6-0.1,1-0.7,0.7-1.3c-0.1-0.6-0.8-1-1.3-0.7 c-1.1,0.3-2.2,0.6-3.3,1c-0.6,0.1-0.9,0.8-0.7,1.4C183.9,61.5,184.3,61.8,184.8,61.8z"/></g><g id="change1_115"><path fill="#00fffc" d="M315.1,70.2c1,0.4,2,0.9,3,1.4c0.1,0.1,0.3,0.1,0.4,0.1c0.4,0,0.8-0.2,1-0.7c0.3-0.6,0-1.2-0.5-1.5 c-1-0.4-2.1-1-3-1.4c-0.6-0.2-1.2,0-1.5,0.6C314.3,69.3,314.6,70,315.1,70.2z"/></g><g id="change1_30"><path fill="#00fffc" d="M344.4,397.4c-0.9,0.6-1.9,1.3-2.7,1.9c-0.5,0.4-0.7,1-0.3,1.6c0.2,0.3,0.6,0.5,1,0.5 c0.2,0,0.4-0.1,0.6-0.1c1-0.6,1.9-1.3,2.8-1.9c0.5-0.4,0.7-1,0.3-1.6C345.7,397.2,345,397,344.4,397.4z"/></g><g id="change1_81"><path fill="#00fffc" d="M315.5,413.6c-1,0.4-2,0.9-3,1.3c-0.6,0.2-0.8,0.9-0.6,1.5c0.1,0.4,0.6,0.7,1,0.7c0.1,0,0.3,0,0.4-0.1 c1-0.4,2.1-0.9,3-1.3c0.6-0.2,0.8-0.9,0.6-1.5C316.7,413.6,316,413.4,315.5,413.6z"/></g><g id="change1_29"><path fill="#00fffc" d="M357.8,387.4c-0.9,0.7-1.7,1.4-2.6,2.1c-0.5,0.4-0.6,1.1-0.1,1.6c0.2,0.3,0.5,0.4,0.9,0.4 c0.2,0,0.5-0.1,0.7-0.2c0.9-0.7,1.8-1.4,2.6-2.1c0.4-0.4,0.5-1.1,0.1-1.6C359,387.1,358.2,387,357.8,387.4z"/></g><g id="change1_83"><path fill="#00fffc" d="M330.3,406.1c-1,0.5-1.9,1-2.9,1.6c-0.5,0.3-0.7,1-0.4,1.5c0.2,0.4,0.6,0.6,1,0.6c0.1,0,0.4-0.1,0.5-0.1 c1-0.5,2-1,3-1.6c0.5-0.3,0.7-1,0.4-1.5C331.5,406,330.9,405.8,330.3,406.1z"/></g><g id="change1_112"><path fill="#00fffc" d="M367.7,380.2c0.2,0.2,0.5,0.4,0.8,0.4s0.5-0.1,0.7-0.3c0.8-0.7,1.6-1.6,2.4-2.3c0.4-0.4,0.4-1.1,0-1.6 c-0.4-0.4-1.1-0.4-1.6,0c-0.8,0.7-1.6,1.6-2.4,2.3C367.3,379.1,367.3,379.8,367.7,380.2z"/></g><g id="change1_116"><path fill="#00fffc" d="M410.1,321.9c-0.5-0.3-1.2,0-1.5,0.5c-0.4,1-1,2-1.5,3c-0.3,0.5-0.1,1.2,0.5,1.5c0.1,0.1,0.3,0.1,0.5,0.1 c0.4,0,0.8-0.2,1-0.6c0.5-1,1-2,1.5-3C410.9,322.8,410.6,322.1,410.1,321.9z"/></g><g id="change1_85"><path fill="#00fffc" d="M381.5,364.2c-0.7,0.8-1.5,1.7-2.2,2.5c-0.4,0.4-0.4,1.2,0.1,1.6c0.2,0.2,0.4,0.3,0.7,0.3 c0.3,0,0.6-0.1,0.8-0.4c0.7-0.8,1.5-1.7,2.2-2.5c0.4-0.4,0.4-1.2-0.1-1.6C382.6,363.7,381.9,363.7,381.5,364.2z"/></g><g id="change1_84"><path fill="#00fffc" d="M393.3,350.8c-0.5-0.4-1.2-0.2-1.6,0.2c-0.7,0.9-1.3,1.8-1.9,2.7c-0.4,0.5-0.3,1.2,0.2,1.6 c0.2,0.1,0.4,0.2,0.7,0.2c0.4,0,0.7-0.1,0.9-0.4c0.7-0.9,1.3-1.8,2-2.7C394,351.9,393.8,351.2,393.3,350.8z"/></g><g id="change1_39"><path fill="#00fffc" d="M402.3,336.8c-0.5-0.3-1.2-0.1-1.6,0.4c-0.6,1-1.1,1.9-1.7,2.9c-0.3,0.5-0.1,1.2,0.4,1.6 c0.1,0.1,0.4,0.1,0.6,0.1c0.4,0,0.7-0.2,1-0.5c0.6-1,1.2-1.9,1.7-2.9C403.1,337.7,402.9,337.1,402.3,336.8z"/></g><g id="change1_20"><path fill="#00fffc" d="M218.1,428.8c-1.1-0.1-2.2-0.2-3.3-0.4c-0.6-0.1-1.2,0.4-1.3,1s0.4,1.2,1,1.3c1.1,0.1,2.2,0.3,3.3,0.4 c0.1,0,0.1,0,0.1,0c0.6,0,1-0.4,1.1-1C219.2,429.4,218.7,428.9,218.1,428.8z"/></g><g id="change1_104"><path fill="#00fffc" d="M201.7,426.3c-1.1-0.2-2.2-0.4-3.3-0.7c-0.6-0.1-1.2,0.2-1.3,0.8c-0.1,0.6,0.2,1.2,0.8,1.3 c1.1,0.2,2.2,0.4,3.3,0.7c0.1,0,0.1,0,0.2,0c0.5,0,1-0.4,1.1-0.9C202.7,427,202.3,426.4,201.7,426.3z"/></g><g id="change1_36"><path fill="#00fffc" d="M284.1,424.4c-1,0.3-2.2,0.5-3.3,0.7c-0.6,0.1-1,0.7-0.8,1.3c0.1,0.5,0.6,0.9,1.1,0.9c0.1,0,0.1,0,0.2,0 c1.1-0.2,2.2-0.5,3.3-0.8c0.6-0.1,1-0.7,0.8-1.3C285.3,424.6,284.7,424.3,284.1,424.4z"/></g><g id="change1_17"><path fill="#00fffc" d="M185.5,422.3c-1-0.3-2.2-0.7-3.2-1c-0.6-0.2-1.2,0.1-1.4,0.7c-0.1,0.6,0.1,1.2,0.7,1.4 c1,0.4,2.2,0.7,3.2,1c0.1,0,0.2,0.1,0.3,0.1c0.4,0,0.9-0.3,1-0.8C186.5,423.1,186.1,422.5,185.5,422.3z"/></g><g id="change1_54"><path fill="#00fffc" d="M267.8,427.7c-1.1,0.1-2.2,0.3-3.3,0.5c-0.6,0.1-1,0.7-1,1.3c0.1,0.6,0.5,1,1.1,1c0.1,0,0.1,0,0.1,0 c1.1-0.1,2.2-0.3,3.3-0.5c0.6-0.1,1-0.7,1-1.3C269,428,268.4,427.6,267.8,427.7z"/></g><g id="change1_93"><path fill="#00fffc" d="M234.7,429.9c-1.1,0-2.2-0.1-3.3-0.1c-0.6,0-1.1,0.4-1.2,1c0,0.6,0.4,1.1,1,1.2c1.1,0.1,2.2,0.1,3.3,0.1 l0,0c0.6,0,1.1-0.5,1.1-1.1C235.8,430.4,235.3,429.9,234.7,429.9z"/></g><g id="change1_15"><path fill="#00fffc" d="M251.3,429.5c-1.1,0.1-2.2,0.1-3.3,0.2c-0.6,0-1.1,0.5-1,1.2c0,0.6,0.5,1,1.1,1c0,0,0,0,0.1,0 c1.1-0.1,2.2-0.1,3.3-0.2c0.6-0.1,1.1-0.6,1-1.2S252,429.4,251.3,429.5z"/></g><g id="change1_111"><path fill="#00fffc" d="M300.1,419.7c-1,0.4-2.1,0.7-3.2,1c-0.6,0.2-0.9,0.8-0.7,1.4c0.1,0.4,0.6,0.7,1,0.7c0.1,0,0.2,0,0.4-0.1 c1-0.4,2.2-0.7,3.2-1c0.6-0.2,0.9-0.8,0.7-1.4C301.3,419.8,300.7,419.5,300.1,419.7z"/></g><g id="change1_107"><path fill="#00fffc" d="M421.5,290.5c-0.6-0.1-1.2,0.2-1.3,0.8c-0.3,1-0.6,2.2-0.9,3.2c-0.1,0.6,0.1,1.2,0.7,1.4 c0.1,0,0.2,0.1,0.3,0.1c0.4,0,0.9-0.3,1-0.8c0.3-1.1,0.6-2.2,0.9-3.3C422.4,291.2,422.1,290.6,421.5,290.5z"/></g><g id="change1_12"><path fill="#00fffc" d="M425.9,224.9c0.1,1.1,0.2,2.2,0.3,3.3c0.1,0.6,0.5,1,1.1,1h0.1c0.6-0.1,1-0.6,1-1.2 c-0.1-1.1-0.1-2.2-0.3-3.3c-0.1-0.6-0.6-1-1.2-1C426.3,223.8,425.8,224.3,425.9,224.9z"/></g><g id="change1_57"><path fill="#00fffc" d="M427.2,257.6c-0.6-0.1-1.2,0.4-1.2,1c-0.1,1.1-0.2,2.2-0.3,3.3c-0.1,0.6,0.4,1.2,1,1.2c0.1,0,0.1,0,0.1,0 c0.6,0,1-0.4,1.1-1c0.1-1.1,0.2-2.2,0.3-3.3C428.2,258.2,427.8,257.6,427.2,257.6z"/></g><g id="change1_56"><path fill="#00fffc" d="M416.5,306.4c-0.6-0.2-1.2,0.1-1.4,0.7c-0.4,1-0.8,2.1-1.2,3.1c-0.2,0.6,0.1,1.2,0.7,1.4 c0.1,0.1,0.3,0.1,0.4,0.1c0.4,0,0.9-0.3,1-0.7c0.4-1,0.8-2.1,1.2-3.2C417.4,307.3,417.1,306.7,416.5,306.4z"/></g><g id="change1_60"><path fill="#00fffc" d="M425.1,274.2c-0.6-0.1-1.2,0.3-1.3,0.9c-0.2,1.1-0.4,2.2-0.6,3.3c-0.1,0.6,0.3,1.2,0.9,1.3 c0.1,0,0.1,0,0.2,0c0.5,0,1-0.4,1.1-0.9c0.2-1.1,0.4-2.2,0.6-3.3C426.1,274.8,425.7,274.2,425.1,274.2z"/></g><g id="change1_91"><path fill="#00fffc" d="M294.5,407.6l0.7,2.1l0,0c44.8-15.1,81-46.7,102.1-89.1l-2-1C374.6,361.4,338.8,392.7,294.5,407.6z"/></g><g id="change1_18"><path fill="#00fffc" d="M161.1,398.5c-41.8-20.8-73-56.6-87.9-100.8l-2.1,0.7c15.1,44.8,46.7,81,89.1,102.1l0,0L161.1,398.5 L161.1,398.5z"/></g><g id="change1_24"><path fill="#00fffc" d="M294.5,407.6c-44.3,14.9-91.7,11.7-133.5-9l-1,2c42.3,21,90.4,24.2,135.2,9.2L294.5,407.6L294.5,407.6z"/></g><g id="change1_80"><path fill="#00fffc" d="M73.1,297.8c-14.9-44.3-11.7-91.7,9-133.5l-2-1c-21,42.3-24.2,90.3-9.2,135.1l0,0L73.1,297.8L73.1,297.8z"/></g><g id="change1_59"><path fill="#00fffc" d="M80.2,163.2L80.2,163.2l2,1l0,0c20.8-41.8,56.6-73,100.8-87.9l0,0l-0.7-2.1l0,0 C137.5,89.2,101.2,120.9,80.2,163.2z"/></g><g id="change1_14"><path fill="#00fffc" d="M316.5,85.3L316.5,85.3l1-2l0,0c-42.3-21-90.4-24.2-135.2-9.1l0.7,2.1C227.2,61.4,274.7,64.5,316.5,85.3z"/></g><g id="change1_92"><path fill="#00fffc" d="M88.7,187.2c-0.6-0.2-1.2,0.1-1.4,0.7c-4.8,13.5-7.7,27.6-8.7,42c-0.1,0.6,0.4,1.1,1,1.2h0.1 c0.6,0,1-0.4,1.1-1c1-14.2,3.9-28.1,8.7-41.4C89.6,188,89.2,187.3,88.7,187.2z"/></g><g id="change1_3"><path fill="#00fffc" d="M83.2,272.2c-0.1-0.6-0.7-1-1.3-0.9c-0.6,0.1-1,0.7-0.9,1.3c2.7,14.1,7.4,27.7,13.9,40.6 c0.2,0.4,0.6,0.6,1,0.6c0.1,0,0.4-0.1,0.5-0.1c0.5-0.3,0.7-1,0.5-1.5C90.5,299.5,85.9,286,83.2,272.2z"/></g><g id="change1_43"><path fill="#00fffc" d="M151.6,376.5c0.2,0.1,0.4,0.1,0.6,0.1c0.4,0,0.7-0.1,1-0.5c0.3-0.5,0.1-1.2-0.3-1.6 c-9.3-6-18-13.1-25.9-20.8l-1.6,1.6C133.4,363.3,142.1,370.3,151.6,376.5z"/></g><g id="change1_26"><path fill="#00fffc" d="M232.8,399.7c-14.2-0.5-28.3-2.9-41.7-7.1c-0.6-0.1-1.2,0.1-1.4,0.7c-0.1,0.6,0.1,1.2,0.7,1.4 c13.6,4.3,27.9,6.7,42.3,7.3c0,0,0,0,0.1,0c0.6,0,1.1-0.4,1.1-1C233.9,400.2,233.4,399.7,232.8,399.7z"/></g><g id="change1_88"><path fill="#00fffc" d="M120.6,347.1c-0.4-0.4-1.1-0.5-1.6-0.1c-0.4,0.4-0.5,1.1-0.1,1.6c2.1,2.3,4.2,4.5,6.4,6.7l1.6-1.6 C124.8,351.6,122.7,349.4,120.6,347.1z"/></g><g id="change1_55"><path fill="#00fffc" d="M314.3,380.5c-12.5,6.8-25.7,11.9-39.5,15.1c-0.6,0.1-1,0.7-0.8,1.3c0.1,0.5,0.6,0.9,1.1,0.9 c0.1,0,0.1,0,0.2,0c13.9-3.3,27.4-8.5,40-15.3c0.5-0.3,0.7-1,0.4-1.5C315.6,380.4,314.9,380.2,314.3,380.5z"/></g><g id="change1_52"><path fill="#00fffc" d="M106.9,149.7c-0.4,0.5-0.2,1.2,0.3,1.6c0.2,0.1,0.4,0.2,0.7,0.2c0.4,0,0.7-0.1,0.9-0.4 c5.3-7.6,11.3-14.7,17.9-21.3l-1.6-1.6C118.3,134.8,112.3,142,106.9,149.7z"/></g><g id="change1_4"><path fill="#00fffc" d="M172.6,97.5c0.1,0,0.3,0,0.4-0.1c12.9-5.9,26.5-9.9,40.5-12.2c0.6-0.1,1-0.7,0.9-1.3 c-0.1-0.6-0.7-1-1.3-0.9c-14.2,2.2-28,6.4-41.1,12.3c-0.6,0.2-0.8,0.9-0.5,1.5C171.8,97.2,172.3,97.5,172.6,97.5z"/></g><g id="change1_99"><path fill="#00fffc" d="M137.5,118.3c-0.4-0.4-1.1-0.5-1.6-0.1c-3.8,3.2-7.4,6.5-10.9,10l1.6,1.6c3.4-3.4,7-6.7,10.8-9.9 C137.8,119.4,137.8,118.8,137.5,118.3z"/></g><g id="change1_22"><path fill="#00fffc" d="M238.8,384.1v2.2c39.8,0,75.9-16.2,102-42.3l-1.6-1.6C313.4,368.1,277.9,384.1,238.8,384.1z"/></g><g id="change1_113"><path fill="#00fffc" d="M238.8,99.8v-2.2c-39.8,0-75.9,16.2-102,42.3l1.6,1.6C164.1,115.8,199.6,99.8,238.8,99.8z"/></g><g id="change1_2"><path fill="#00fffc" d="M339.2,141.5l1.6-1.6c-26.1-26.1-62.2-42.3-102-42.3v2.2C277.9,99.8,313.4,115.8,339.2,141.5z"/></g><g id="change1_51"><path fill="#00fffc" d="M380.8,241.9L380.8,241.9h2.2l0,0c0-39.8-16.2-75.9-42.3-102l-1.6,1.6 C364.9,167.2,380.8,202.8,380.8,241.9z"/></g><g id="change1_61"><path fill="#00fffc" d="M138.4,141.5l-1.6-1.6c-26.1,26.1-42.3,62.2-42.3,102h2.2C96.7,202.8,112.6,167.2,138.4,141.5z"/></g><g id="change1_10"><path fill="#00fffc" d="M238.8,384.1c-39.2,0-74.7-15.9-100.4-41.7l-1.6,1.6c26.1,26.1,62.2,42.3,102,42.3L238.8,384.1 L238.8,384.1z"/></g><g id="change1_94"><path fill="#00fffc" d="M96.7,241.9L96.7,241.9h-2.2l0,0c0,39.8,16.2,75.9,42.3,102l1.6-1.6C112.6,316.7,96.7,281.1,96.7,241.9z"/></g><g id="change1_33"><path fill="#00fffc" d="M339.2,342.4l1.6,1.6c26.1-26.1,42.3-62.2,42.3-102h-2.2C380.8,281.1,364.9,316.7,339.2,342.4z"/></g><g id="change1_63"><path fill="#00fffc" d="M362.1,277.5c0.1-0.6-0.1-1.2-0.7-1.4c-0.6-0.1-1.2,0.1-1.4,0.7c-1.5,5.1-3.3,10.1-5.4,14.9l2.1,0.9 C358.7,287.7,360.6,282.7,362.1,277.5z"/></g><g><g id="change1_58"><path fill="#00fffc" d="M329.4,329.3c-3.2,3.3-6.7,6.5-10.2,9.4c-4.3,3.6-8.9,6.8-13.6,9.8c-0.5,0.3-0.7,1-0.4,1.6 c0.3,0.4,0.9,0.7,1.3,0.4c0.1,0,0.1-0.1,0.1-0.1c4.8-3,9.4-6.3,13.8-9.9c3.6-3,7.1-6.2,10.5-9.6c0.4-0.4,0.4-1.1,0-1.6 C330.5,328.9,329.8,328.9,329.4,329.3z"/></g><g id="change1_45"><path fill="#00fffc" d="M173.7,131.1c-0.5,0.3-0.7,1-0.4,1.6c0.3,0.4,0.9,0.7,1.3,0.4c0.1,0,0.1-0.1,0.1-0.1 c5.7-3.3,11.6-6.3,17.8-8.7l-0.8-2.1C185.5,124.8,179.4,127.7,173.7,131.1z"/></g><g id="change1_41"><path fill="#00fffc" d="M203.5,119.4c-0.1-0.6-0.8-0.9-1.4-0.7c-3.5,1-7,2.3-10.4,3.6l0.8,2.1c3.3-1.3,6.7-2.5,10.2-3.6 C203.4,120.6,203.8,120,203.5,119.4z"/></g><g id="change1_74"><path fill="#00fffc" d="M352.7,187.2c0.2,0.5,0.9,0.7,1.4,0.5h0.1c0.5-0.3,0.8-1,0.5-1.5c-4.4-9.3-10.1-18.2-16.8-26.2 c-0.4-0.4-1.1-0.5-1.6-0.1s-0.5,1.1-0.1,1.6C342.8,169.3,348.3,178,352.7,187.2z"/></g><g id="change1_53"><path fill="#00fffc" d="M233,115.6c10.2-0.4,20.5,0.3,30.6,2.3c0.2,0.1,0.4,0,0.6-0.1c0.4-0.1,0.6-0.4,0.7-0.8 c0.1-0.6-0.3-1.2-0.9-1.3c-10.2-2-20.7-2.8-31.1-2.3c-0.6,0-1.1,0.5-1,1.2C231.9,115.2,232.4,115.7,233,115.6z"/></g><g id="change1_86"><path fill="#00fffc" d="M292.6,127.4c9.3,4.4,17.9,9.8,25.9,16.3c0.3,0.3,0.7,0.3,1.1,0.1c0.1-0.1,0.3-0.1,0.4-0.3 c0.4-0.4,0.3-1.2-0.1-1.6c-8.1-6.6-16.9-12.2-26.4-16.6c-0.6-0.3-1.2,0-1.5,0.5C291.8,126.5,292,127.2,292.6,127.4z"/></g><g id="change1_68"><path fill="#00fffc" d="M365.9,247.8c0.1,0,0.3,0,0.4-0.1c0.4-0.1,0.7-0.5,0.7-1c0.4-10.4-0.4-20.8-2.5-31.1 c-0.1-0.6-0.7-1-1.3-0.9c-0.6,0.1-1,0.7-0.9,1.3c2.1,10,2.9,20.2,2.4,30.5C364.9,247.3,365.3,247.8,365.9,247.8z"/></g><g id="change1_34"><path fill="#00fffc" d="M149,150.1c-7.4,7.3-13.9,15.5-19.4,24.4c-0.3,0.5-0.1,1.2,0.4,1.6c0.3,0.2,0.7,0.2,1,0.1 c0.2-0.1,0.4-0.2,0.5-0.4c5.3-8.7,11.7-16.8,19.1-24c0.4-0.4,0.4-1.1,0-1.6C150.2,149.7,149.4,149.7,149,150.1z"/></g><g id="change1_66"><path fill="#00fffc" d="M216.8,367.9c0.2,0,0.4,0,0.6-0.1c0.4-0.1,0.6-0.4,0.7-0.8c0.1-0.6-0.3-1.2-0.9-1.3 c-9.9-1.7-19.5-4.6-28.6-8.6l-0.9,2.1C196.9,363.2,206.7,366.1,216.8,367.9z"/></g><g id="change1_77"><path fill="#00fffc" d="M347.9,305c-0.3,0.5-0.1,1.2,0.4,1.6c0.3,0.1,0.7,0.2,1,0.1c0.2-0.1,0.4-0.2,0.5-0.4 c2.5-4.3,4.8-8.8,6.8-13.4l-2.1-0.9C352.6,296.3,350.4,300.8,347.9,305z"/></g><g id="change1_64"><path fill="#00fffc" d="M277.8,361.4c-9.7,3.1-19.8,5.1-30,5.8c-0.6,0.1-1,0.6-1,1.2c0.1,0.6,0.6,1.1,1.2,1 c10.4-0.7,20.7-2.7,30.6-5.9h0.1c0.5-0.2,0.8-0.8,0.7-1.4C279,361.6,278.4,361.3,277.8,361.4z"/></g></g><g id="change1_76"><path fill="#00fffc" d="M339.6,142.3c-0.3,0-0.6-0.1-0.8-0.3c-0.4-0.4-0.4-1.1,0-1.6l68-68c0.4-0.4,1.1-0.4,1.6,0 c0.4,0.4,0.4,1.1,0,1.6l-68,67.9C340.1,142.1,339.9,142.3,339.6,142.3z"/></g><g id="change1_106"><path fill="#00fffc" d="M407.6,411.5c-0.1,0-0.4-0.1-0.5-0.2l-68.3-65.4c-0.3-0.3-0.3-0.7,0-1s0.7-0.3,1,0l68.3,65.4 c0.3,0.3,0.3,0.7,0,1C408,411.4,407.8,411.5,407.6,411.5z"/></g><g id="change1_7"><path fill="#00fffc" d="M238.4 359.1H239.1V480.70000000000005H238.4z"/></g><g id="change1_101"><path fill="#00fffc" d="M0 241.5H95.9V242.2H0z"/></g></g></svg>